
<svg version="1.1" id="Familia" xmlns="http://www.w3.org/2000/svg" xmlns:xlink="http://www.w3.org/1999/xlink" x="0px" y="0px"
	 viewBox="0 0 400 400" style="enable-background:new 0 0 400 400;" xml:space="preserve">
<style type="text/css">
	.st0{fill:var(--foreground)}
</style>
<g>
	<path class="st0" d="M45.8,231.3c12.8,0,23.1-10.4,23.1-23.1c0-12.8-10.4-23.1-23.1-23.1c-12.8,0-23.1,10.4-23.1,23.1
		C22.7,220.9,33,231.3,45.8,231.3z"/>
	<path class="st0" d="M394.8,206.1l-38.3-56.8c-2.9-4.2-7.5-6.6-12.2-6.8v0h-56.5v0c-4.8,0.2-9.4,2.5-12.2,6.8l-34.8,51.6
		l-35.2-52.2c-2.9-4.2-7.5-6.6-12.2-6.8l0,0h-0.5c0,0,0,0,0,0H127h0h-0.5l0,0c-4.8,0.2-9.4,2.5-12.2,6.8l-38.3,56.8
		c-1.7,2.5-2.5,5.3-2.6,8.2l-14.7,21.8H31.1c0,0,0,0,0,0h-0.3v0c-2.5,0.1-5,1.3-6.5,3.6L3.9,269.2c-2.5,3.7-1.5,8.8,2.2,11.3
		l0.6,0.4c3.7,2.5,8.8,1.5,11.3-2.2l11.5-17L28.1,291c0,0,0,0,0,0l-3,40.7c-0.4,5,3,9.4,7.5,9.7l0.7,0c4.5,0.3,8.4-3.5,8.8-8.5
		l2.7-36.9h7.6l2.7,36.9c0.4,5,4.3,8.9,8.8,8.5l0.7,0c4.5-0.3,7.8-4.7,7.5-9.7L69,291c0,0,0,0,0,0l-1.9-37.8
		c0.1-0.1,0.2-0.3,0.3-0.4l16.1-23.8c6.7,2.9,14.7,0.8,18.9-5.5l21.6-32l-2.7,55c0,0,0,0,0,0.1l-5.6,76.5
		c-0.7,9.5,5.6,17.7,14.1,18.3l1.3,0.1c8.5,0.6,15.9-6.6,16.6-16l5.1-69.5H167l5.1,69.5c0.7,9.5,8.1,16.7,16.6,16l1.3-0.1
		c8.5-0.6,14.8-8.8,14.1-18.3l-5.6-76.5c0,0,0,0,0,0l-2.7-55l21.6,32c4.7,7,14.3,8.9,21.3,4.1l1.1-0.7c0.2-0.1,0.3-0.2,0.5-0.4
		c0.4,0.3,0.8,0.6,1.2,0.9l1.1,0.7c7,4.7,16.6,2.9,21.3-4.1l24-35.6v10.2l-35,78.1h27.1l-3.5,48c-0.6,8.5,5.7,15.8,14.2,16.5
		l1.3,0.1c8.5,0.6,15.8-5.7,16.5-14.2l3.7-50.4h8.2l3.7,50.4c0.6,8.5,8,14.8,16.5,14.2l1.3-0.1c8.5-0.6,14.8-8,14.2-16.5l-3.5-48
		h27.1l-35-78.1v-10.2l24,35.6c4.7,7,14.3,8.9,21.3,4.1l1.1-0.7C397.7,222.7,399.6,213.1,394.8,206.1z"/>
	<path class="st0" d="M171.1,132.9c19.6,0,35.5-15.9,35.5-35.5c0-19.6-15.9-35.5-35.5-35.5c-19.6,0-35.5,15.9-35.5,35.5
		C135.6,117.1,151.5,132.9,171.1,132.9z"/>
	<path class="st0" d="M312.1,135.1c18.6,0,33.7-15.1,33.7-33.7c0-4.4-0.9-8.6-2.4-12.5c6.3-2,11-7.9,11-14.8
		c0-8.6-6.9-15.5-15.5-15.5c-7.1,0-13.1,4.8-14.9,11.2c-3.7-1.4-7.7-2.1-11.9-2.1c-18.6,0-33.7,15.1-33.7,33.7
		C278.4,120,293.5,135.1,312.1,135.1z"/>
</g>
</svg>
